# xmcd CD database file
#
# Track frame offsets:
#	151
#	26345
#	42233
#	65018
#	85857
#	102999
#	125822
#	138494
#	158758
#	172811
#
# Disc length: 2535 seconds
#
# Revision: 0
# Processed by: cddbd v1.4PL0 Copyright (c) Steve Scherf et al.
# Submitted via: CDex 1.51
#
DISCID=8009e50a
DTITLE=Shardad - Beauty of Love
DYEAR=1900
DGENRE=New Age
TTITLE0=Beauty of Love
TTITLE1=Connie's Butterfly
TTITLE2=Ozra's Dance
TTITLE3=Serenity
TTITLE4=Rain Story
TTITLE5=Voices of the Night
TTITLE6=Desert Wind
TTITLE7=Summer Breeze
TTITLE8=Thoughts of the Past
TTITLE9=Rise Again
EXTD=
EXTT0=
EXTT1=
EXTT2=
EXTT3=
EXTT4=
EXTT5=
EXTT6=
EXTT7=
EXTT8=
EXTT9=
PLAYORDER=
